G04 #@! TF.GenerationSoftware,KiCad,Pcbnew,(5.1.2)-2*
G04 #@! TF.CreationDate,2019-11-18T12:10:18+11:00*
G04 #@! TF.ProjectId,BoSL Probe,426f534c-2050-4726-9f62-652e6b696361,rev?*
G04 #@! TF.SameCoordinates,Original*
G04 #@! TF.FileFunction,Copper,L2,Bot*
G04 #@! TF.FilePolarity,Positive*
%FSLAX46Y46*%
G04 Gerber Fmt 4.6, Leading zero omitted, Abs format (unit mm)*
G04 Created by KiCad (PCBNEW (5.1.2)-2) date 2019-11-18 12:10:18*
%MOMM*%
%LPD*%
G04 APERTURE LIST*
%ADD10R,0.900000X2.250000*%
%ADD11R,0.900000X2.800000*%
%ADD12C,1.450000*%
%ADD13R,1.500000X0.900000*%
%ADD14O,1.500000X0.900000*%
%ADD15C,1.700000*%
%ADD16C,0.400000*%
%ADD17C,0.600000*%
G04 APERTURE END LIST*
D10*
X114450000Y-102600000D03*
X115700000Y-102600000D03*
X117000000Y-102600000D03*
X118250000Y-102600000D03*
X114450000Y-97250000D03*
X115700000Y-97250000D03*
D11*
X117000000Y-97525000D03*
D10*
X118250000Y-97250000D03*
D12*
X108768000Y-99100000D03*
X108768000Y-97060000D03*
X108768000Y-95020000D03*
X108768000Y-92980000D03*
X106990000Y-100080000D03*
X106990000Y-93960000D03*
X106990000Y-98040000D03*
X106990000Y-96000000D03*
D13*
X103000000Y-106000000D03*
D14*
X103000000Y-103460000D03*
X103000000Y-104730000D03*
D15*
X125000000Y-96500000D03*
X125000000Y-103500000D03*
X125000000Y-100000000D03*
D16*
X115700000Y-95725000D02*
X115700000Y-97250000D01*
X114995000Y-95020000D02*
X115700000Y-95725000D01*
X108768000Y-95020000D02*
X114995000Y-95020000D01*
X117000000Y-99825000D02*
X117000000Y-99800000D01*
X118250000Y-101075000D02*
X117000000Y-99825000D01*
X118250000Y-102600000D02*
X118250000Y-101075000D01*
X117000000Y-102600000D02*
X117000000Y-99800000D01*
X117000000Y-99800000D02*
X117000000Y-97525000D01*
X110493304Y-99800000D02*
X117000000Y-99800000D01*
X109793304Y-99100000D02*
X110493304Y-99800000D01*
X108768000Y-99100000D02*
X109793304Y-99100000D01*
D17*
X106990000Y-100080000D02*
X111910000Y-105000000D01*
X123500000Y-105000000D02*
X111910000Y-105000000D01*
X125000000Y-103500000D02*
X123500000Y-105000000D01*
X121500000Y-96500000D02*
X125000000Y-96500000D01*
X116754999Y-91754999D02*
X121500000Y-96500000D01*
X108179999Y-91754999D02*
X116754999Y-91754999D01*
X106990000Y-93960000D02*
X106990000Y-92944998D01*
X106990000Y-92944998D02*
X108179999Y-91754999D01*
D16*
X114260000Y-97060000D02*
X114450000Y-97250000D01*
X108768000Y-97060000D02*
X114260000Y-97060000D01*
X115700000Y-104125000D02*
X115700000Y-102600000D01*
X119020001Y-104125001D02*
X115700000Y-104125000D01*
X119100001Y-104045001D02*
X119020001Y-104125001D01*
X119100001Y-95804999D02*
X119100001Y-104045001D01*
X116275002Y-92980000D02*
X119100001Y-95804999D01*
X108768000Y-92980000D02*
X116275002Y-92980000D01*
M02*
